<svg width="512" height="512" viewBox="0 0 16 16" fill="none" xmlns="http://www.w3.org/2000/svg">
<path d="M13 7L16 4L13 3L12 0L9 3L9.6 4.9L8.6 5.9C7.7 5.3 6.6 4.9 5.5 4.9C2.5 5 0 7.5 0 10.5C0 13.5 2.5 16 5.5 16C8.5 16 11 13.5 11 10.5C11 9.3 10.6 8.3 10 7.4L11 6.4L13 7ZM9 10.5C9 12.4 7.4 14 5.5 14C3.6 14 2 12.4 2 10.5C2 8.6 3.6 7 5.5 7C6.1 7 6.7 7.2 7.2 7.4L4.8 9.8C4.4 10.2 4.4 10.8 4.8 11.2C5 11.4 5.3 11.5 5.5 11.5C5.7 11.5 6 11.4 6.2 11.2L8.6 8.8C8.8 9.3 9 9.9 9 10.5Z" fill="#FE5E41"/>
</svg>
